<?xml version="1.0" encoding="utf-8"?>
<!-- Generator: Adobe Illustrator 28.0.0, SVG Export Plug-In . SVG Version: 6.00 Build 0)  -->
<svg version="1.1" id="Layer_1" xmlns="http://www.w3.org/2000/svg" xmlns:xlink="http://www.w3.org/1999/xlink" x="0px" y="0px"
	 viewBox="0 0 265 265" style="enable-background:new 0 0 265 265;" xml:space="preserve">
<style type="text/css">
	.st0{fill:#FFFFFF;}
</style>
<rect class="st0" width="265" height="265"/>
<g>
	<polygon points="0,0 0,44.1 88.4,44.1 88.5,132.4 132.6,44.1 176.8,44.1 220.9,44.1 176.8,0 	"/>
	<polygon points="220.9,44.1 220.9,88.3 176.8,88.3 132.6,88.3 176.8,132.4 220.9,176.5 220.9,176.5 220.9,220.6 220.9,220.7 
		265,176.5 265,132.4 265,88.3 265,44.1 	"/>
	<polygon points="132.9,220.6 88.7,132.4 88.7,220.6 0.3,220.6 0.3,264.7 176.7,264.7 220.8,220.6 176.7,220.6 	"/>
</g>
</svg>
