<?xml version="1.0" encoding="utf-8"?>
<!-- Generator: Adobe Illustrator 28.0.0, SVG Export Plug-In . SVG Version: 6.00 Build 0)  -->
<svg version="1.1" id="Layer_1" xmlns="http://www.w3.org/2000/svg" xmlns:xlink="http://www.w3.org/1999/xlink" x="0px" y="0px"
	 viewBox="0 0 465.5 98.4" style="enable-background:new 0 0 465.5 98.4;" xml:space="preserve">
<style type="text/css">
	.st0{fill:#FFFFFF;}
</style>
<g>
	<path class="st0" d="M123.9,57.3V82h-18.6V16.5h32.4c15.5,0,22.9,8.3,22.9,18.1c0,9-5.3,13.7-9.8,15.5c4.1,1.4,8.5,5.8,8.5,16.9
		v2.8c0,4.1,0.2,9.3,0.9,12.2h-18.2c-1-2.8-1.3-7.6-1.3-14.2V66c0-5.7-1.4-8.7-9.9-8.7C130.6,57.3,123.9,57.3,123.9,57.3z
		 M123.9,43.9h8.9c6.4,0,8.6-2.7,8.6-7s-2.8-6.9-8.6-6.9h-8.9L123.9,43.9L123.9,43.9z"/>
	<path class="st0" d="M186.4,82V59.3c0-0.9,0-1.4-0.7-2.5l-22.3-40.3H185c4.2,9.2,8.8,19.9,11.9,27.4c2.7-7.1,8.2-18.9,12-27.4h20.1
		l-22.7,40.2c-0.3,0.6-0.6,1.1-0.6,2.5V82H186.4z"/>
	<path class="st0" d="M247.6,62.2c1.1,5.7,5.1,8.2,11.3,8.2c5.8,0,8.5-2.1,8.5-5.9c0-4.3-2.9-5.9-13.2-8.4
		C234.9,51.4,231,44.4,231,35.5c0-11,8.1-20.2,26.3-20.2s26.7,9.7,27.5,20h-18.5c-0.5-3.5-2.3-7-9.1-7c-4.4,0-7,1.6-7,5.1
		s2.4,4.9,12.5,7.4c20.1,5,24.2,12.4,24.2,21.7c0,12.3-9.5,20.8-28.7,20.8c-18.1,0-27.7-8.5-29.2-21.1L247.6,62.2L247.6,62.2z"/>
	<path class="st0" d="M309.1,30.8h-18.7V16.5h56.4v14.2h-18.5V82h-19.2V30.8z"/>
	<path class="st0" d="M364,69.3L360.2,82h-18.6l20.7-65.5h24.8L408.6,82h-20l-4-12.7H364L364,69.3z M381.2,55
		c-3-10.3-5.6-19.4-7-25.8h-0.3c-1.5,7-4.1,16.3-6.6,25.8H381.2z"/>
	<path class="st0" d="M415.4,16.5h19.3v51.2h30.8L463.4,82h-48V16.5z"/>
</g>
<g>
	<polygon class="st0" points="0,0 0,16.4 32.8,16.4 32.9,49.2 49.3,16.4 65.7,16.4 82.1,16.4 65.7,0 	"/>
	<polygon class="st0" points="82.1,16.4 82.1,32.8 65.7,32.8 49.3,32.8 65.7,49.2 82.1,65.6 82.1,65.6 82.1,82 82.1,82 98.5,65.6 
		98.5,49.2 98.5,32.8 98.5,16.4 	"/>
	<polygon class="st0" points="49.4,82 33,49.2 33,82 0.1,82 0.1,98.4 65.7,98.4 82.1,82 65.7,82 	"/>
</g>
</svg>
